<?xml version="1.0" standalone="no"?>
<!DOCTYPE svg PUBLIC "-//W3C//DTD SVG 20010904//EN"
 "http://www.w3.org/TR/2001/REC-SVG-20010904/DTD/svg10.dtd">
<svg version="1.0" xmlns="http://www.w3.org/2000/svg"
 width="172.291802pt" height="153.578957pt" viewBox="0 0 172.291802 153.578957"
 preserveAspectRatio="xMidYMid meet">
<metadata>
Created by potrace 1.12, written by Peter Selinger 2001-2015
</metadata>
<g transform="translate(-14.626974,160.690257) scale(0.100000,-0.100000)"
fill="#000000" stroke="none">
<path d="M978 1603 c18 -2 45 -2 60 0 15 2 0 4 -33 4 -33 0 -45 -2 -27 -4z"/>
<path d="M895 1569 c-276 -40 -514 -250 -593 -524 -12 -38 -23 -91 -27 -117
-6 -49 -24 -66 -26 -25 0 21 -1 21 -10 -3 -10 -24 -11 -24 -24 -6 -24 32 -36
112 -24 164 13 60 39 101 117 186 35 38 72 86 82 107 26 51 26 110 -1 140 -19
23 -20 23 -10 2 14 -28 14 -69 0 -96 -6 -12 -51 -62 -99 -112 -48 -49 -94
-104 -103 -121 -43 -83 -41 -178 5 -253 27 -43 27 -89 0 -132 -46 -75 -48
-170 -5 -253 9 -17 55 -71 103 -121 48 -49 93 -100 99 -112 15 -29 14 -86 -1
-103 -7 -8 -3 -6 10 4 17 15 22 30 22 63 0 58 -24 102 -109 196 -38 43 -80 99
-92 124 -27 56 -29 141 -5 197 17 40 29 40 39 1 4 -15 5 -13 6 8 2 52 18 26
31 -49 27 -169 90 -294 210 -414 97 -98 193 -154 326 -191 102 -29 266 -31
369 -5 148 38 289 126 388 244 85 100 167 303 167 410 0 26 3 29 30 28 39 -1
55 -39 55 -126 0 -85 -25 -134 -115 -234 -108 -118 -134 -190 -90 -246 l19
-25 -11 37 c-16 54 3 89 103 190 108 108 134 157 134 254 0 60 -4 77 -26 111
-34 51 -35 103 -4 150 13 19 27 54 31 79 15 102 -19 176 -131 287 -97 96 -119
134 -111 186 6 36 6 36 -8 11 -35 -59 -9 -126 94 -237 89 -98 115 -150 115
-233 0 -106 -41 -172 -56 -89 l-6 34 -2 -37 c-1 -47 -21 -51 -21 -5 0 55 -36
180 -74 254 -107 213 -300 357 -532 398 -94 16 -147 17 -239 4z m336 -76 c105
-36 209 -104 281 -181 59 -65 134 -185 118 -190 -22 -8 -108 30 -148 66 -120
107 -210 132 -328 93 -41 -14 -75 -20 -93 -16 -38 8 -47 -9 -16 -29 20 -13 25
-25 25 -55 0 -21 6 -44 14 -50 7 -6 16 -33 20 -60 9 -70 23 -104 48 -120 20
-12 24 -11 45 13 13 15 23 34 23 42 0 17 38 53 56 54 20 0 44 -70 44 -130 0
-48 4 -64 25 -89 l26 -30 -59 -40 c-33 -22 -62 -46 -65 -53 -9 -24 44 -132 86
-175 23 -24 44 -43 48 -43 11 0 17 48 6 59 -5 5 -15 7 -22 5 -15 -6 -47 37
-63 83 -13 40 7 73 46 73 15 1 38 7 52 15 48 27 58 20 80 -57 11 -40 25 -87
30 -104 6 -17 10 -49 10 -71 0 -36 -4 -44 -35 -63 -41 -25 -46 -50 -10 -50 14
0 38 14 59 35 32 31 34 37 25 67 -5 18 -11 74 -14 123 -2 50 -7 107 -11 128
l-6 37 85 0 85 0 -13 -67 c-27 -136 -79 -242 -167 -338 -369 -403 -1043 -237
-1178 291 -31 119 -33 114 61 114 l81 0 -7 -102 c-3 -57 -11 -129 -17 -160
-10 -56 -10 -58 18 -92 22 -26 37 -35 62 -35 41 -1 41 11 -2 44 -19 15 -37 38
-40 53 -6 25 26 165 53 236 12 29 13 29 76 7 17 -6 42 -13 57 -16 38 -7 45
-42 20 -92 -26 -50 -40 -63 -72 -63 -5 0 -10 -13 -10 -30 0 -16 5 -30 10 -30
21 0 98 88 110 126 7 21 17 45 22 51 15 19 1 61 -25 74 -12 7 -39 23 -60 36
l-38 24 31 36 c30 33 32 40 26 84 -5 38 -2 57 14 89 11 22 23 40 26 40 17 0
64 -44 64 -59 0 -9 9 -27 20 -39 20 -21 22 -21 45 -6 19 12 28 33 41 95 10 43
21 79 25 79 5 0 11 23 15 51 5 40 12 53 30 61 33 15 18 31 -21 24 -22 -5 -55
1 -97 15 -107 36 -182 20 -283 -61 -27 -22 -63 -49 -80 -60 -32 -21 -104 -45
-112 -36 -8 8 46 99 92 156 61 75 138 135 230 181 109 54 184 69 325 66 97 -3
128 -8 201 -34z m-442 -394 c18 -53 13 -61 -23 -34 -13 10 -17 21 -12 39 9 35
22 33 35 -5z m471 10 c9 -16 8 -25 -6 -40 -22 -25 -34 -24 -34 2 0 20 16 59
25 59 2 0 9 -9 15 -21z"/>
<path d="M913 589 c14 -8 17 -25 17 -94 0 -69 -3 -86 -17 -94 -14 -8 -4 -10
42 -11 70 0 105 18 105 55 0 13 -10 31 -21 39 -20 14 -20 16 -5 31 43 43 1 85
-84 85 -42 -1 -51 -3 -37 -11z m95 -11 c19 -19 14 -56 -9 -68 -33 -18 -49 -5
-49 40 0 35 3 40 23 40 13 0 28 -5 35 -12z m20 -121 c4 -37 -13 -57 -49 -57
-28 0 -29 2 -29 46 l0 45 38 -3 c32 -3 37 -7 40 -31z"/>
<path d="M1103 589 c14 -8 17 -25 17 -99 0 -76 -2 -89 -17 -93 -10 -3 5 -5 32
-5 28 0 42 2 33 5 -14 3 -18 15 -18 48 0 43 0 44 38 48 l37 4 -37 1 -38 2 0
45 c0 43 1 45 29 45 20 0 35 -8 45 -22 l16 -22 0 27 0 27 -77 0 c-58 -1 -73
-3 -60 -11z"/>
<path d="M650 1519 c-30 -16 -59 -35 -65 -40 -8 -9 119 56 134 68 18 14 -24
-3 -69 -28z"/>
<path d="M1380 1507 c0 -2 24 -20 53 -40 100 -66 182 -157 243 -269 18 -35 34
-59 34 -54 0 4 -14 34 -31 66 -55 104 -159 213 -267 282 -18 11 -32 18 -32 15z"/>
<path d="M470 1383 c-48 -49 -92 -99 -99 -113 -10 -20 -8 -19 10 5 12 17 60
67 105 113 46 45 81 82 78 82 -4 0 -46 -39 -94 -87z"/>
<path d="M335 1210 c-9 -16 -13 -30 -11 -30 3 0 12 14 21 30 9 17 13 30 11 30
-3 0 -12 -13 -21 -30z"/>
<path d="M1762 760 c0 -19 2 -27 5 -17 2 9 2 25 0 35 -3 9 -5 1 -5 -18z"/>
<path d="M1696 522 c-4 -10 -22 -45 -41 -78 -19 -32 -26 -48 -14 -34 26 30 72
120 66 127 -3 2 -8 -4 -11 -15z"/>
<path d="M347 449 c55 -102 202 -238 320 -298 67 -33 64 -24 -3 13 -130 69
-246 177 -306 282 -16 30 -32 54 -35 54 -2 0 8 -23 24 -51z"/>
<path d="M1554 316 c-34 -35 -87 -81 -118 -101 -59 -40 -79 -61 -24 -26 60 37
138 104 174 148 19 23 34 43 32 43 -2 0 -31 -29 -64 -64z"/>
<path d="M978 73 c18 -2 45 -2 60 0 15 2 0 4 -33 4 -33 0 -45 -2 -27 -4z"/>
</g>
</svg>
