<?xml version="1.0" standalone="no"?>
<!DOCTYPE svg PUBLIC "-//W3C//DTD SVG 20010904//EN"
 "http://www.w3.org/TR/2001/REC-SVG-20010904/DTD/svg10.dtd">
<svg version="1.0" xmlns="http://www.w3.org/2000/svg"
 width="172.451292pt" height="153.050783pt" viewBox="0 0 172.451292 153.050783"
 preserveAspectRatio="xMidYMid meet">
<metadata>
Created by potrace 1.12, written by Peter Selinger 2001-2015
</metadata>
<g transform="translate(-14.538998,160.588705) scale(0.100000,-0.100000)"
fill="#000000" stroke="none">
<path d="M882 1599 c-286 -50 -517 -250 -601 -518 -17 -53 -33 -117 -36 -143
-8 -59 -27 -63 -43 -9 -33 108 -3 195 106 313 83 90 105 128 106 185 1 32 -5
48 -22 65 l-23 23 12 -27 c24 -54 5 -93 -94 -195 -114 -117 -141 -165 -142
-253 0 -53 5 -74 28 -114 34 -61 34 -101 0 -162 -23 -40 -28 -61 -28 -114 1
-89 31 -143 143 -256 103 -103 120 -142 88 -199 l-17 -30 28 28 c22 22 28 36
27 70 -1 57 -20 89 -105 183 -111 122 -140 207 -107 315 12 41 38 53 38 19 0
-12 7 -56 16 -98 59 -287 272 -508 564 -588 91 -25 281 -25 375 0 303 79 534
337 573 641 4 32 12 60 18 62 19 6 39 -58 38 -122 0 -75 -24 -122 -106 -213
-87 -96 -118 -147 -118 -198 0 -27 7 -50 20 -65 22 -28 24 -24 9 19 -16 46 10
90 107 186 99 98 134 162 134 247 0 43 -7 70 -28 110 -34 65 -34 106 2 173 19
36 26 64 26 105 0 87 -35 149 -139 251 -101 99 -122 140 -98 190 18 35 5 40
-17 8 -22 -30 -20 -91 3 -136 10 -20 51 -72 90 -114 81 -90 110 -140 117 -206
6 -58 -15 -136 -39 -140 -13 -3 -17 4 -17 30 0 60 -40 190 -86 278 -97 188
-276 330 -484 384 -78 21 -245 29 -318 15z m322 -29 c127 -32 227 -91 331
-195 102 -102 154 -183 191 -299 29 -92 44 -203 26 -192 -7 4 -12 22 -12 39 0
58 -30 158 -70 242 -195 397 -696 536 -1067 294 -79 -52 -187 -166 -236 -249
-43 -74 -82 -189 -92 -273 -5 -38 -11 -55 -17 -49 -13 13 14 155 45 232 40 98
87 168 167 250 193 197 461 270 734 200z m11 -74 c107 -34 194 -87 275 -166
61 -60 140 -172 140 -199 0 -7 -10 -9 -27 -5 -44 11 -80 32 -146 85 -34 27
-80 58 -102 69 -52 25 -138 26 -202 3 -64 -24 -216 -23 -297 2 -113 34 -216 5
-318 -88 -50 -46 -158 -92 -158 -68 0 4 22 42 49 82 105 160 252 262 436 305
92 21 251 12 350 -20z m-149 -318 c4 -26 10 -48 14 -48 8 0 12 -11 30 -102 8
-42 18 -61 36 -73 25 -16 27 -16 50 6 13 12 24 30 24 39 0 16 20 38 47 54 21
12 47 -54 48 -121 0 -54 4 -66 29 -92 l28 -29 -42 -27 c-23 -14 -48 -29 -57
-32 -48 -19 -17 -134 56 -211 44 -46 64 -50 69 -12 4 24 -15 43 -35 35 -12 -4
-44 40 -62 88 -9 23 -7 31 9 47 11 11 31 20 45 20 15 0 40 7 57 16 29 15 32
15 44 0 14 -19 54 -161 61 -218 5 -32 1 -41 -36 -77 -22 -22 -41 -43 -41 -46
0 -3 18 -5 40 -5 25 0 40 5 40 12 0 7 12 22 26 33 24 19 25 24 16 60 -6 22
-14 95 -17 163 l-7 122 77 0 78 0 -7 -49 c-18 -134 -91 -277 -195 -380 -272
-270 -712 -265 -978 11 -96 99 -166 241 -188 381 l-6 37 82 0 81 0 -7 -62 c-4
-35 -9 -88 -10 -118 -1 -30 -6 -76 -10 -102 -7 -45 -6 -49 25 -78 20 -19 43
-30 61 -30 39 0 37 13 -7 46 -35 27 -35 29 -31 83 4 59 42 210 55 223 8 8 83
-12 132 -36 19 -9 25 -19 23 -40 -3 -39 -41 -96 -64 -96 -23 0 -32 -18 -27
-56 l3 -27 50 46 c48 43 95 132 95 180 0 11 -24 32 -60 55 -33 20 -60 41 -60
46 0 4 11 22 25 38 21 25 26 40 24 82 -2 43 15 100 36 124 8 9 65 -44 65 -59
0 -9 8 -27 18 -39 15 -19 21 -20 44 -9 23 10 30 23 43 80 8 37 15 75 15 83 0
8 5 16 11 18 6 2 13 24 16 49 4 35 11 48 32 61 23 13 29 13 53 -1 22 -12 29
-25 34 -63z m181 -110 c-27 -21 -33 -6 -17 38 l12 29 13 -25 c13 -23 12 -27
-8 -42z m-455 17 c10 -38 2 -44 -23 -19 -12 13 -17 27 -13 38 9 24 27 15 36
-19z m-471 -515 c40 -105 96 -186 189 -273 238 -224 593 -259 888 -86 72 43
197 168 241 243 44 74 89 201 97 274 10 85 26 101 20 19 -6 -81 -51 -215 -97
-295 -19 -31 -74 -97 -124 -147 -153 -153 -308 -217 -525 -218 -137 -1 -220
18 -335 74 -181 88 -320 246 -384 435 -25 74 -44 191 -34 207 4 6 13 -27 21
-73 8 -47 27 -119 43 -160z"/>
<path d="M908 588 c17 -17 16 -185 0 -191 -7 -3 17 -6 54 -6 48 -1 71 3 82 15
21 20 20 58 0 79 -13 12 -14 19 -5 28 16 16 14 53 -5 71 -11 11 -34 16 -77 16
-47 0 -58 -3 -49 -12z m96 -11 c11 -8 17 -23 14 -38 -2 -19 -10 -25 -35 -27
-31 -3 -33 -2 -33 31 0 49 18 60 54 34z m14 -99 c21 -21 14 -57 -12 -70 -39
-17 -56 -4 -56 42 0 37 2 40 28 40 15 0 33 -5 40 -12z"/>
<path d="M1103 589 c14 -8 17 -25 17 -94 0 -69 -3 -86 -17 -94 -14 -8 -7 -10
32 -10 39 0 46 2 33 10 -12 6 -18 22 -18 44 0 32 3 35 29 35 17 0 33 5 36 10
4 6 -8 10 -29 10 -36 0 -36 0 -36 45 0 41 2 45 25 45 13 0 33 -10 45 -22 l20
-22 0 27 0 27 -77 0 c-58 -1 -73 -3 -60 -11z"/>
</g>
</svg>
