<?xml version="1.0" standalone="no"?>
<!DOCTYPE svg PUBLIC "-//W3C//DTD SVG 20010904//EN"
 "http://www.w3.org/TR/2001/REC-SVG-20010904/DTD/svg10.dtd">
<svg version="1.0" xmlns="http://www.w3.org/2000/svg"
 width="201.000000pt" height="166.000000pt" viewBox="0 0 201.000000 166.000000"
 preserveAspectRatio="xMidYMid meet">
<metadata>
Created by potrace 1.12, written by Peter Selinger 2001-2015
</metadata>
<g transform="translate(0.000000,166.000000) scale(0.100000,-0.100000)"
fill="#000000" stroke="none">
<path d="M0 830 l0 -830 1005 0 1005 0 0 830 0 830 -1005 0 -1005 0 0 -830z
m1200 754 c208 -54 387 -196 484 -384 46 -88 86 -218 86 -278 0 -26 4 -33 17
-30 24 4 45 82 39 140 -7 66 -36 116 -117 206 -39 42 -80 94 -90 114 -23 45
-25 106 -3 136 22 32 35 27 17 -8 -24 -50 -3 -91 98 -190 104 -102 139 -164
139 -251 0 -41 -7 -69 -26 -105 -36 -67 -36 -108 -2 -173 21 -40 28 -67 28
-110 0 -85 -35 -149 -134 -247 -97 -96 -123 -140 -107 -186 15 -43 13 -47 -9
-19 -13 15 -20 38 -20 65 0 51 31 102 118 198 82 91 106 138 106 213 1 64 -19
128 -38 122 -6 -2 -14 -30 -18 -62 -32 -248 -197 -476 -423 -585 -120 -57
-199 -75 -340 -74 -168 0 -280 33 -415 119 -124 80 -232 207 -290 343 -27 63
-60 197 -60 242 0 34 -26 22 -38 -19 -33 -108 -4 -193 107 -315 85 -94 104
-126 105 -183 1 -34 -5 -48 -27 -70 l-28 -28 17 30 c32 57 15 96 -88 199 -112
113 -142 167 -143 256 0 53 5 74 28 114 34 61 34 101 0 162 -23 40 -28 61 -28
114 1 88 28 136 142 253 99 102 118 141 94 195 l-12 27 23 -23 c17 -17 23 -33
22 -65 -1 -57 -23 -95 -106 -185 -109 -118 -139 -205 -106 -313 16 -54 35 -50
43 9 3 26 19 90 36 143 84 268 315 468 601 518 73 14 240 6 318 -15z"/>
<path d="M893 1589 c-160 -24 -307 -101 -423 -219 -80 -82 -127 -152 -167
-250 -31 -77 -58 -219 -45 -232 6 -6 12 11 17 49 46 375 394 664 770 640 109
-7 187 -27 280 -71 150 -71 271 -191 345 -341 40 -84 70 -184 70 -242 0 -17 5
-35 12 -39 18 -11 3 100 -26 192 -37 116 -89 197 -191 299 -104 104 -204 163
-331 195 -94 24 -226 32 -311 19z"/>
<path d="M865 1516 c-184 -43 -331 -145 -436 -305 -27 -40 -49 -78 -49 -82 0
-24 108 22 158 68 102 93 205 122 318 88 81 -25 233 -26 297 -2 64 23 150 22
202 -3 22 -11 68 -42 102 -69 66 -53 102 -74 146 -85 36 -9 35 3 -10 78 -48
79 -152 181 -234 229 -139 82 -347 117 -494 83z"/>
<path d="M979 1242 c-21 -13 -28 -26 -32 -61 -3 -25 -10 -47 -16 -49 -6 -2
-11 -10 -11 -18 0 -8 -7 -46 -15 -83 -13 -57 -20 -70 -43 -80 -23 -11 -29 -10
-44 9 -10 12 -18 30 -18 39 0 15 -57 68 -65 59 -21 -24 -38 -81 -36 -124 2
-42 -3 -57 -24 -82 -14 -16 -25 -34 -25 -38 0 -5 27 -26 60 -46 36 -23 60 -44
60 -55 0 -48 -47 -137 -95 -180 l-50 -46 -3 27 c-5 38 4 56 27 56 23 0 61 57
64 96 2 21 -4 31 -23 40 -49 24 -124 44 -132 36 -13 -13 -51 -164 -55 -223 -4
-54 -4 -56 31 -83 44 -33 46 -46 7 -46 -18 0 -41 11 -61 30 -31 29 -32 33 -25
78 4 26 9 72 10 102 1 30 6 83 10 118 l7 62 -81 0 -82 0 6 -37 c12 -79 59
-206 97 -266 173 -270 493 -388 794 -292 247 78 437 300 470 546 l7 49 -78 0
-77 0 7 -122 c3 -68 11 -141 17 -163 9 -36 8 -41 -16 -60 -14 -11 -26 -26 -26
-33 0 -7 -15 -12 -40 -12 -22 0 -40 2 -40 5 0 3 19 24 41 46 37 36 41 45 36
77 -7 57 -47 199 -61 218 -12 15 -15 15 -44 0 -17 -9 -42 -16 -57 -16 -14 0
-34 -9 -45 -20 -16 -16 -18 -24 -9 -47 18 -48 50 -92 62 -88 20 8 39 -11 35
-35 -5 -38 -25 -34 -69 12 -73 77 -104 192 -56 211 9 3 34 18 57 32 l42 27
-28 29 c-25 26 -29 38 -29 92 -1 67 -27 133 -48 121 -27 -16 -47 -38 -47 -54
0 -9 -11 -27 -24 -39 -23 -22 -25 -22 -50 -6 -18 12 -28 31 -36 73 -18 91 -22
102 -30 102 -4 0 -10 22 -14 48 -5 38 -12 51 -34 63 -24 14 -30 14 -53 1z m55
-658 c19 -18 21 -55 5 -71 -9 -9 -8 -16 5 -28 20 -21 21 -59 0 -79 -11 -12
-34 -16 -82 -15 -37 0 -61 3 -54 6 16 6 17 174 0 191 -9 9 2 12 49 12 43 0 66
-5 77 -16z m206 -11 l0 -27 -20 22 c-12 12 -32 22 -45 22 -23 0 -25 -4 -25
-45 0 -45 0 -45 36 -45 21 0 33 -4 29 -10 -3 -5 -19 -10 -36 -10 -26 0 -29 -3
-29 -35 0 -22 6 -38 18 -44 13 -8 6 -10 -33 -10 -39 0 -46 2 -32 10 14 8 17
25 17 94 0 69 -3 86 -17 94 -13 8 2 10 60 11 l77 0 0 -27z"/>
<path d="M957 583 c-4 -3 -7 -22 -7 -40 0 -33 2 -34 33 -31 25 2 33 8 35 27 5
34 -40 66 -61 44z"/>
<path d="M950 450 c0 -46 17 -59 56 -42 15 8 24 20 24 35 0 31 -18 47 -52 47
-26 0 -28 -3 -28 -40z"/>
<path d="M1230 1106 c-16 -44 -10 -59 17 -38 20 15 21 19 8 42 l-13 25 -12
-29z"/>
<path d="M756 1104 c-4 -11 1 -25 13 -38 25 -25 33 -19 23 19 -9 34 -27 43
-36 19z"/>
<path d="M257 803 c-10 -16 9 -133 34 -207 64 -189 203 -347 384 -435 115 -56
198 -75 335 -74 217 1 372 65 525 218 50 50 105 116 124 147 46 80 91 214 97
295 6 82 -10 66 -20 -19 -8 -73 -53 -200 -97 -274 -44 -75 -169 -200 -241
-243 -295 -173 -650 -138 -888 86 -132 124 -203 257 -232 433 -8 46 -17 79
-21 73z"/>
</g>
</svg>
